<svg width="48" height="42" viewBox="0 0 48 42" fill="none" xmlns="http://www.w3.org/2000/svg">
<path d="M36.1628 7.46967L23.5844 0L11.3991 3.93141L4.32382 14.5462L8.64762 23.5885L22.4052 25.5542L32.232 19.6571L36.1628 7.46967Z" fill="#4C5C75"/>
<path d="M32.232 19.6577L33.8043 34.2039L22.7983 40.8873L22.4052 25.5548L32.232 19.6577Z" fill="#111D33"/>
<path d="M32.232 19.6566L36.1627 7.46924L38.9142 18.0841L33.8043 34.2028L32.232 19.6566Z" fill="#1D2943"/>
<path d="M22.4051 25.556L22.7982 40.8885L17.6882 40.4954L1.9653 37.7434L8.64755 23.5903L22.4051 25.556Z" fill="#1D2943"/>
<path d="M4.32381 14.5464L8.64761 23.5886L1.96537 37.7417L0 26.3406L4.32381 14.5464Z" fill="#111D33"/>
<path d="M34.8116 14.6406L39.4783 12.0024L43.7392 13.423L46.3768 17.2787L44.7536 20.5257L39.8841 21.1345L36.4348 19.1051L34.8116 14.6406Z" fill="#4C5C75"/>
<path d="M36.4348 19.106L35.8261 24.3822L39.6812 26.6145L39.8841 21.1353L36.4348 19.106Z" fill="#111D33"/>
<path d="M36.4348 19.1052L34.8116 14.6406L33 25.0047L35.8261 24.3814L36.4348 19.1052Z" fill="#111D33"/>
<path d="M39.8841 21.1347L39.6812 26.6139L41.7101 26.411L47.1884 25.5992L44.7536 20.5259L39.8841 21.1347Z" fill="#1D2943"/>
<path d="M46.3768 17.2793L44.7536 20.5262L47.1884 25.5996L48 21.5409L46.3768 17.2793Z" fill="#111D33"/>
<path d="M46 24.8918L39.5439 22.0024L33.6491 23.5583L30 27.7812L32.2456 31.3374L38.9825 32.0042L44 30.0038L46 24.8918Z" fill="#4C5C75"/>
<path d="M44 30.0039L44.6613 38.9445L39.3853 41.9996L39 32.0043L44 30.0039Z" fill="#111D33"/>
<path d="M44 30.0038L46 25.0029L47.1605 30.89L44.6613 38.9444L44 30.0038Z" fill="#1D2943"/>
<path d="M39 32.0041L39.3852 41.9995L36.6083 41.7218L29.1107 40.6108L32 31.0039L39 32.0041Z" fill="#1D2943"/>
<path d="M30 28.0034L32 31.0039L29.1107 40.6108L28 35.0561L30 28.0034Z" fill="#111D33"/>
</svg>
