<svg width="57" height="40" viewBox="0 0 57 40" fill="none" xmlns="http://www.w3.org/2000/svg">
<path d="M23.3587 13.7636L32.5029 12.793L52.6961 18.6167L56.1922 31.2121L40.6216 34.9899L17.2626 25.4112L23.3587 13.7636Z" fill="url(#paint0_linear_2867_46632)"/>
<path fill-rule="evenodd" clip-rule="evenodd" d="M32.5457 12.0127L53.1567 17.957L57 31.8032L40.583 35.7864L16.3121 25.8337L23.0163 13.0242L32.5457 12.0127ZM23.3587 13.7637L32.5028 12.7931L52.6961 18.6168L56.1922 31.2122L40.6216 34.99L17.2626 25.4113L23.3587 13.7637Z" fill="#6B7396"/>
<path d="M43.933 19.5873L40.6216 34.9899L56.1922 31.2121L52.6961 18.6167L43.933 19.5873Z" fill="url(#paint1_linear_2867_46632)"/>
<path opacity="0.5" d="M43.7679 20.0003L40.7143 34.4447L52.9286 18.8892L43.7679 20.0003Z" fill="#B7C0E2"/>
<path d="M23.3587 13.7637L43.933 19.5875L40.6216 34.9899L17.2626 25.4112L23.3587 13.7637Z" fill="url(#paint2_linear_2867_46632)"/>
<path d="M23.3587 13.7637L43.933 19.5875L40.6216 34.9899L17.2626 25.4112L23.3587 13.7637Z" fill="#9CA6CD"/>
<path d="M32.5029 12.793L23.3587 13.7636L43.933 19.5874L52.6961 18.6167L32.5029 12.793Z" fill="url(#paint3_linear_2867_46632)"/>
<path opacity="0.5" d="M54.7093 30.2676L40.6216 34.9899L56.2333 31.2382L52.6962 18.6167L54.7093 30.2676Z" fill="white"/>
<path opacity="0.5" d="M43.552 20.558L40.6216 34.9899L45.076 21.5286L52.6962 18.6167L43.552 20.558Z" fill="#B7C0E2"/>
<path d="M44.7857 21.1115L23.3587 13.7637L41.7322 22.2226L40.6216 34.9899L44.7857 21.1115Z" fill="white"/>
<path opacity="0.64" d="M40.6216 34.9899L17.2626 25.4111L37.6607 20.0003L43.7679 21.1114L40.6216 34.9899Z" fill="#929ABB"/>
<path d="M24.1207 15.7051L17.2627 25.4114L23.3587 13.7638L42.409 20.5582L24.1207 15.7051Z" fill="#A5B2DC"/>
<path d="M52.6961 18.6167L41.7322 20.0004L44.7857 21.1115L52.6961 18.6167Z" fill="white"/>
<path d="M7.04667 17.5414L16.1908 16.5708L36.3841 22.3946L39.8801 34.9899L24.3095 38.7677L0.950591 29.189L7.04667 17.5414Z" fill="url(#paint4_linear_2867_46632)"/>
<path fill-rule="evenodd" clip-rule="evenodd" d="M16.2336 15.7905L36.8447 21.7348L40.688 35.5811L24.2709 39.5642L1.52588e-05 29.6115L6.70421 16.8021L16.2336 15.7905ZM7.04667 17.5415L16.1908 16.5709L36.3841 22.3947L39.8801 34.99L24.3095 38.7678L0.950587 29.1891L7.04667 17.5415Z" fill="#6B7396"/>
<path d="M27.621 23.3652L24.3095 38.7677L39.8801 34.9899L36.3841 22.3945L27.621 23.3652Z" fill="url(#paint5_linear_2867_46632)"/>
<path opacity="0.5" d="M27.4139 24.1639L24.4286 38.482L36.558 22.2227L27.4139 24.1639Z" fill="#B7C0E2"/>
<path d="M7.04667 17.5415L27.6209 23.3653L24.3095 38.7678L0.950591 29.1891L7.04667 17.5415Z" fill="url(#paint6_linear_2867_46632)"/>
<path d="M16.1908 16.5708L7.04666 17.5414L27.6209 23.3652L36.3841 22.3946L16.1908 16.5708Z" fill="url(#paint7_linear_2867_46632)"/>
<path opacity="0.5" d="M38.3972 34.0454L24.3095 38.7677L39.9212 35.0161L36.3841 22.3945L38.3972 34.0454Z" fill="white"/>
<path opacity="0.5" d="M27.24 24.3358L24.3095 38.7677L28.764 25.3064L36.3841 22.3945L27.24 24.3358Z" fill="#B7C0E2"/>
<path d="M29.5179 23.3338L7.04666 17.5415L26.0969 24.3359L24.3095 38.7678L29.5179 23.3338Z" fill="white"/>
<path opacity="0.5" d="M21.9231 35.0004L0.950591 29.189L26.0969 24.3358L21.9231 35.0004Z" fill="#959FC4"/>
<path d="M36.3841 22.3945L25.7159 23.3652L27.4822 25.5559L36.3841 22.3945Z" fill="white"/>
<path fill-rule="evenodd" clip-rule="evenodd" d="M8.58242 16.5196L14.961 3.02461L23.6214 0.92041L43.778 5.8579L47.6213 19.693L31.1645 23.5598L8.58242 16.5196ZM31.1824 22.7695L9.4833 16.0045L15.3462 3.75038L23.5953 1.70132L43.3218 6.53346L46.8119 19.097L31.1824 22.7695Z" fill="#6B7396"/>
<path d="M34.5487 7.48088L31.1824 22.7696L46.8079 19.1056L43.3119 6.51025L34.5487 7.48088Z" fill="url(#paint8_linear_2867_46632)"/>
<path d="M15.3462 3.75049L34.5487 7.48097L31.1824 22.7696L9.4833 16.0046L15.3462 3.75049Z" fill="url(#paint9_linear_2867_46632)"/>
<path d="M23.5953 1.70166L15.3462 3.75061L34.5487 7.48109L43.3118 6.51046L23.5953 1.70166Z" fill="url(#paint10_linear_2867_46632)"/>
<path opacity="0.5" d="M45.325 18.1612L31.1824 22.7696L46.8119 19.0972L43.3119 6.51025L45.325 18.1612Z" fill="white"/>
<path opacity="0.5" d="M34.1677 8.45151L31.1824 22.7696L37.6607 13.3338L43.3119 6.51025L34.1677 8.45151Z" fill="#B7C0E2"/>
<path d="M34.5487 7.48098L15.3462 3.75049L33.0247 8.4516L31.1824 22.7696L34.5487 7.48098Z" fill="white"/>
<path opacity="0.5" d="M28.5 20.0003L9.4833 16.0044L33.0247 8.45131L28.5 20.0003Z" fill="#959FC4"/>
<path d="M43.3118 6.51025L32.6437 7.48088L34.1677 8.45151L43.3118 6.51025Z" fill="white"/>
<defs>
<linearGradient id="paint0_linear_2867_46632" x1="29.015" y1="13.2783" x2="48.1747" y2="16.6898" gradientUnits="userSpaceOnUse">
<stop stop-color="#ECF0FF"/>
<stop offset="0.357292" stop-color="#E9EDFF"/>
<stop offset="0.70625" stop-color="#F7F8FF"/>
<stop offset="1" stop-color="#F2F4FF"/>
</linearGradient>
<linearGradient id="paint1_linear_2867_46632" x1="47.7431" y1="18.6167" x2="49.5888" y2="35.0384" gradientUnits="userSpaceOnUse">
<stop stop-color="#CDD3EA"/>
<stop offset="0.523958" stop-color="#DDE3FC"/>
<stop offset="0.773958" stop-color="#B5BDDD"/>
<stop offset="1" stop-color="#A5AECF"/>
</linearGradient>
<linearGradient id="paint2_linear_2867_46632" x1="43.933" y1="19.1021" x2="16.9171" y2="23.041" gradientUnits="userSpaceOnUse">
<stop stop-color="#D3D7E8"/>
<stop offset="0.513542" stop-color="#E7ECFF"/>
<stop offset="1" stop-color="#B2BAD8"/>
</linearGradient>
<linearGradient id="paint3_linear_2867_46632" x1="29.4548" y1="13.2783" x2="49.2852" y2="16.9414" gradientUnits="userSpaceOnUse">
<stop stop-color="#ECF0FF"/>
<stop offset="0.357292" stop-color="#E9EDFF"/>
<stop offset="0.70625" stop-color="#F7F8FF"/>
<stop offset="1" stop-color="#F2F4FF"/>
</linearGradient>
<linearGradient id="paint4_linear_2867_46632" x1="12.7029" y1="17.0561" x2="31.8627" y2="20.4677" gradientUnits="userSpaceOnUse">
<stop stop-color="#ECF0FF"/>
<stop offset="0.357292" stop-color="#E9EDFF"/>
<stop offset="0.70625" stop-color="#F7F8FF"/>
<stop offset="1" stop-color="#F2F4FF"/>
</linearGradient>
<linearGradient id="paint5_linear_2867_46632" x1="31.431" y1="22.3945" x2="33.2767" y2="38.8163" gradientUnits="userSpaceOnUse">
<stop stop-color="#CDD3EA"/>
<stop offset="0.523958" stop-color="#DDE3FC"/>
<stop offset="0.773958" stop-color="#B5BDDD"/>
<stop offset="1" stop-color="#A5AECF"/>
</linearGradient>
<linearGradient id="paint6_linear_2867_46632" x1="27.6209" y1="22.88" x2="0.605017" y2="26.8188" gradientUnits="userSpaceOnUse">
<stop stop-color="#D3D7E8"/>
<stop offset="0.513542" stop-color="#E7ECFF"/>
<stop offset="1" stop-color="#B2BAD8"/>
</linearGradient>
<linearGradient id="paint7_linear_2867_46632" x1="13.1427" y1="17.0561" x2="32.9731" y2="20.7192" gradientUnits="userSpaceOnUse">
<stop stop-color="#ECF0FF"/>
<stop offset="0.357292" stop-color="#E9EDFF"/>
<stop offset="0.70625" stop-color="#F7F8FF"/>
<stop offset="1" stop-color="#F2F4FF"/>
</linearGradient>
<linearGradient id="paint8_linear_2867_46632" x1="38.3588" y1="6.51025" x2="40.2045" y2="22.932" gradientUnits="userSpaceOnUse">
<stop stop-color="#CDD3EA"/>
<stop offset="0.523958" stop-color="#DDE3FC"/>
<stop offset="0.773958" stop-color="#B5BDDD"/>
<stop offset="1" stop-color="#A5AECF"/>
</linearGradient>
<linearGradient id="paint9_linear_2867_46632" x1="34.5487" y1="6.99567" x2="7.53278" y2="10.9345" gradientUnits="userSpaceOnUse">
<stop stop-color="#D3D7E8"/>
<stop offset="0.513542" stop-color="#E7ECFF"/>
<stop offset="1" stop-color="#B2BAD8"/>
</linearGradient>
<linearGradient id="paint10_linear_2867_46632" x1="20.0705" y1="1.172" x2="39.9009" y2="4.8351" gradientUnits="userSpaceOnUse">
<stop stop-color="#ECF0FF"/>
<stop offset="0.357292" stop-color="#E9EDFF"/>
<stop offset="0.70625" stop-color="#F7F8FF"/>
<stop offset="1" stop-color="#F2F4FF"/>
</linearGradient>
</defs>
</svg>
