<svg width="40" height="55" viewBox="0 0 40 55" fill="none" xmlns="http://www.w3.org/2000/svg">
<path d="M10.4421 18.6893L19.0498 4.66602L30.4682 17.2323L31.8736 38.1761L23.2659 50.1961L11.8475 39.8152L10.4421 18.6893Z" fill="#43FF93"/>
<path d="M10.4421 18.6893L19.0498 4.66602L30.4682 17.2323L31.8736 38.1761L23.2659 50.1961L11.8475 39.8152L10.4421 18.6893Z" fill="url(#paint0_linear_2812_56707)"/>
<g filter="url(#filter0_f_2812_56707)">
<path d="M10.4421 18.6912L19.0498 4.66797L30.4682 17.2343L31.8736 38.1781L23.2659 50.198L11.8475 39.8172L10.4421 18.6912Z" fill="#43FF93"/>
<path d="M10.4421 18.6912L19.0498 4.66797L30.4682 17.2343L31.8736 38.1781L23.2659 50.198L11.8475 39.8172L10.4421 18.6912Z" fill="url(#paint1_linear_2812_56707)"/>
</g>
<path d="M30.4682 17.2334L10.4421 18.6904L21.8605 38.9057L30.4682 17.2334Z" fill="#6BFFAA"/>
<path d="M30.4682 17.2334L10.4421 18.6904L21.8605 38.9057L30.4682 17.2334Z" fill="url(#paint2_linear_2812_56707)"/>
<path d="M30.4682 17.2334L10.4421 18.6904L21.8605 38.9057L30.4682 17.2334Z" fill="url(#paint3_linear_2812_56707)"/>
<path d="M30.4679 17.2334L20.1035 17.9619L21.8602 38.9057L30.4679 17.2334Z" fill="#46F992"/>
<path d="M30.4679 17.2334L20.1035 17.9619L21.8602 38.9057L30.4679 17.2334Z" fill="url(#paint4_linear_2812_56707)"/>
<path d="M21.8606 38.9057L31.8736 38.1772L30.4683 17.2334L21.8606 38.9057Z" fill="#2EDF79"/>
<path d="M21.8606 38.9057L31.8736 38.1772L30.4683 17.2334L21.8606 38.9057Z" fill="url(#paint5_linear_2812_56707)"/>
<path d="M21.8606 38.9058L11.8476 39.8164L10.4422 18.6904L21.8606 38.9058Z" fill="url(#paint6_linear_2812_56707)"/>
<path d="M23.2659 50.1967L21.8606 38.9052L31.8736 38.1768L23.2659 50.1967Z" fill="#1ACB65"/>
<path d="M23.2661 50.1967L21.8608 38.9053L11.8477 39.8159L23.2661 50.1967Z" fill="#28E478"/>
<path d="M23.2661 50.1967L21.8608 38.9053L11.8477 39.8159L23.2661 50.1967Z" fill="url(#paint7_linear_2812_56707)"/>
<path d="M20.1038 17.9608L10.4421 18.6893L19.0498 4.66602L20.1038 17.9608Z" fill="#A1FFC9"/>
<path d="M20.1038 17.9608L10.4421 18.6893L19.0498 4.66602L20.1038 17.9608Z" fill="url(#paint8_linear_2812_56707)"/>
<path d="M20.1039 17.9617L30.4683 17.2332L19.05 4.66693L20.1039 17.9617Z" fill="#A1FFC9"/>
<path d="M20.1039 17.9617L30.4683 17.2332L19.05 4.66693L20.1039 17.9617Z" fill="url(#paint9_linear_2812_56707)"/>
<path d="M20.1038 17.9624L10.4421 18.6909L18.6985 19.5736L21.8605 38.7241L20.1038 17.9624Z" fill="white" fill-opacity="0.51"/>
<path d="M39.9999 24.8887L32.752 18.2974V36.8736L39.9999 24.8887Z" fill="#1FD46C"/>
<path d="M39.9999 24.8887L34.6843 23.761L32.752 18.2974L39.9999 24.8887Z" fill="#2BFF86"/>
<path d="M39.9999 24.8895L34.6843 23.7617L32.752 36.8744L39.9999 24.8895Z" fill="#2BFF86" fill-opacity="0.4"/>
<path d="M3.70136 41.2234L4.25366 33.5137L16.3962 47.1741L3.70136 41.2234Z" fill="#1FD46C"/>
<path d="M3.58231 41.0895L6.404 38.889L4.25366 33.5137L3.58231 41.0895Z" fill="#27E879"/>
<path d="M3.58212 41.0901L6.40379 38.8896L16.396 47.1746L3.58212 41.0901Z" fill="#37FF8C"/>
<path d="M20.4551 40.3622L11.8474 39.8159L21.8604 38.9053L23.2658 50.0146L20.4551 40.3622Z" fill="white" fill-opacity="0.51"/>
<path d="M21.6848 16.6876L30.2925 17.2339L20.1038 17.9624L19.2254 5.94247L21.6848 16.6876Z" fill="white" fill-opacity="0.51"/>
<path d="M21.8603 38.9053L20.2793 19.9648L22.7386 33.2596L29.2383 20.3291L21.8603 38.9053Z" fill="white" fill-opacity="0.51"/>
<path d="M27.3064 25.2466L22.0364 38.9056L31.6981 38.1771L27.3064 25.2466Z" fill="#25C168"/>
<path d="M33.913 39.7744L24.3479 50.2813L34.7825 48.5302L33.913 39.7744Z" fill="#059A44"/>
<path d="M33.913 39.7744L31.3043 46.779L24.3479 50.2813L34.7825 48.5302L33.913 39.7744Z" fill="#34DD7C"/>
<defs>
<filter id="filter0_f_2812_56707" x="6.44214" y="0.667969" width="29.4314" height="53.5303" filterUnits="userSpaceOnUse" color-interpolation-filters="sRGB">
<feFlood flood-opacity="0" result="BackgroundImageFix"/>
<feBlend mode="normal" in="SourceGraphic" in2="BackgroundImageFix" result="shape"/>
<feGaussianBlur stdDeviation="2" result="effect1_foregroundBlur_2812_56707"/>
</filter>
<linearGradient id="paint0_linear_2812_56707" x1="21.1578" y1="4.66602" x2="21.1578" y2="50.1961" gradientUnits="userSpaceOnUse">
<stop stop-color="#3EFFA2"/>
<stop offset="1" stop-color="#40FF98" stop-opacity="0"/>
</linearGradient>
<linearGradient id="paint1_linear_2812_56707" x1="21.1578" y1="4.66797" x2="21.1578" y2="50.198" gradientUnits="userSpaceOnUse">
<stop stop-color="#3EFFA2"/>
<stop offset="1" stop-color="#40FF98" stop-opacity="0"/>
</linearGradient>
<linearGradient id="paint2_linear_2812_56707" x1="20.2795" y1="18.144" x2="21.4121" y2="37.4441" gradientUnits="userSpaceOnUse">
<stop stop-color="#A2FFCA"/>
<stop offset="1" stop-color="#43FF93" stop-opacity="0"/>
</linearGradient>
<linearGradient id="paint3_linear_2812_56707" x1="18.6985" y1="17.9619" x2="22.0909" y2="38.6859" gradientUnits="userSpaceOnUse">
<stop offset="0.195833" stop-color="#3FF991" stop-opacity="0"/>
<stop offset="1" stop-color="#AEFFD1"/>
</linearGradient>
<linearGradient id="paint4_linear_2812_56707" x1="25.2857" y1="17.2334" x2="25.2857" y2="38.9057" gradientUnits="userSpaceOnUse">
<stop stop-color="#15DE6A"/>
<stop offset="1" stop-color="#28E478" stop-opacity="0"/>
</linearGradient>
<linearGradient id="paint5_linear_2812_56707" x1="30.4683" y1="17.2334" x2="26.606" y2="38.8591" gradientUnits="userSpaceOnUse">
<stop stop-color="#00CA56"/>
<stop offset="1" stop-color="#2BCD70" stop-opacity="0"/>
</linearGradient>
<linearGradient id="paint6_linear_2812_56707" x1="13.6042" y1="17.5977" x2="17.4665" y2="39.2234" gradientUnits="userSpaceOnUse">
<stop stop-color="#00CA56"/>
<stop offset="1" stop-color="#2BCD70" stop-opacity="0"/>
</linearGradient>
<linearGradient id="paint7_linear_2812_56707" x1="22.0364" y1="38.7232" x2="19.7893" y2="44.8643" gradientUnits="userSpaceOnUse">
<stop stop-color="#3DF78F"/>
<stop offset="0.0001" stop-color="#A4FFCC"/>
<stop offset="1" stop-color="#3DF78F" stop-opacity="0"/>
</linearGradient>
<linearGradient id="paint8_linear_2812_56707" x1="19.9282" y1="17.9608" x2="13.1341" y2="14.1667" gradientUnits="userSpaceOnUse">
<stop stop-color="#99FFC4"/>
<stop offset="1" stop-color="#48FA93"/>
</linearGradient>
<linearGradient id="paint9_linear_2812_56707" x1="31.3467" y1="17.4153" x2="19.9209" y2="11.3882" gradientUnits="userSpaceOnUse">
<stop stop-color="#37FF8C"/>
<stop offset="1" stop-color="#98FFC4" stop-opacity="0"/>
</linearGradient>
</defs>
</svg>
